<svg xmlns="http://www.w3.org/2000/svg" viewBox="0 0 32 32">
  <!-- Background circle with InterpretReflect brand green -->
  <circle cx="16" cy="16" r="15" fill="#5C7F4F"/>
  
  <!-- Inner lighter circle for depth -->
  <circle cx="16" cy="16" r="12" fill="#8FA881" opacity="0.3"/>
  
  <!-- Letter "I" and "R" monogram for InterpretReflect -->
  <g fill="#FFFFFF">
    <!-- Letter I -->
    <rect x="9" y="8" width="3" height="16" rx="0.5"/>
    
    <!-- Letter R -->
    <path d="M17 8h5a3 3 0 0 1 3 3v2a3 3 0 0 1-3 3h-2l3 8h-3l-3-8h-0v8h-3V8h3z M20 11v2h2a1 1 0 0 0 1-1v0a1 1 0 0 0-1-1h-2z"/>
  </g>
  
  <!-- Subtle gradient overlay for modern look -->
  <defs>
    <linearGradient id="shine" x1="0%" y1="0%" x2="100%" y2="100%">
      <stop offset="0%" style="stop-color:#FFFFFF;stop-opacity:0.2"/>
      <stop offset="100%" style="stop-color:#FFFFFF;stop-opacity:0"/>
    </linearGradient>
  </defs>
  <circle cx="16" cy="16" r="14" fill="url(#shine)"/>
</svg>